<mxfile host="app.diagrams.net" modified="2023-05-23T15:32:35.897Z" agent="Mozilla/5.0 (Windows NT 10.0; Win64; x64; rv:109.0) Gecko/20100101 Firefox/113.0" etag="22pfCvQDYKZ40jfSOkJs" version="21.3.2" type="device">
  <diagram name="第 1 页" id="AIWA9SYzXgfP6c0yYHo8">
    <mxGraphModel dx="917" dy="550" grid="1" gridSize="10" guides="1" tooltips="1" connect="1" arrows="1" fold="1" page="1" pageScale="1" pageWidth="827" pageHeight="1169" math="0" shadow="0">
      <root>
        <mxCell id="0" />
        <mxCell id="1" parent="0" />
        <mxCell id="RKaLyiD0GiruappCpscS-34" style="rounded=0;orthogonalLoop=1;jettySize=auto;html=1;entryX=0;entryY=0.5;entryDx=0;entryDy=0;" parent="1" source="RKaLyiD0GiruappCpscS-1" target="RKaLyiD0GiruappCpscS-16" edge="1">
          <mxGeometry relative="1" as="geometry" />
        </mxCell>
        <mxCell id="RKaLyiD0GiruappCpscS-35" style="rounded=0;orthogonalLoop=1;jettySize=auto;html=1;entryX=0;entryY=0.5;entryDx=0;entryDy=0;" parent="1" source="RKaLyiD0GiruappCpscS-1" target="RKaLyiD0GiruappCpscS-15" edge="1">
          <mxGeometry relative="1" as="geometry" />
        </mxCell>
        <mxCell id="RKaLyiD0GiruappCpscS-36" style="rounded=0;orthogonalLoop=1;jettySize=auto;html=1;entryX=0;entryY=0.5;entryDx=0;entryDy=0;" parent="1" source="RKaLyiD0GiruappCpscS-1" target="RKaLyiD0GiruappCpscS-12" edge="1">
          <mxGeometry relative="1" as="geometry" />
        </mxCell>
        <mxCell id="RKaLyiD0GiruappCpscS-1" value="一般用户" style="shape=umlActor;verticalLabelPosition=bottom;verticalAlign=top;html=1;" parent="1" vertex="1">
          <mxGeometry x="110" y="205" width="30" height="60" as="geometry" />
        </mxCell>
        <mxCell id="RKaLyiD0GiruappCpscS-56" style="edgeStyle=orthogonalEdgeStyle;rounded=0;orthogonalLoop=1;jettySize=auto;html=1;entryX=0;entryY=0.5;entryDx=0;entryDy=0;" parent="1" source="RKaLyiD0GiruappCpscS-2" target="RKaLyiD0GiruappCpscS-54" edge="1">
          <mxGeometry relative="1" as="geometry" />
        </mxCell>
        <mxCell id="RKaLyiD0GiruappCpscS-2" value="权限用户" style="shape=umlActor;verticalLabelPosition=bottom;verticalAlign=top;html=1;" parent="1" vertex="1">
          <mxGeometry x="110" y="390" width="30" height="60" as="geometry" />
        </mxCell>
        <mxCell id="RKaLyiD0GiruappCpscS-41" style="rounded=0;orthogonalLoop=1;jettySize=auto;html=1;entryX=0;entryY=0.5;entryDx=0;entryDy=0;" parent="1" source="RKaLyiD0GiruappCpscS-3" target="RKaLyiD0GiruappCpscS-24" edge="1">
          <mxGeometry relative="1" as="geometry" />
        </mxCell>
        <mxCell id="RKaLyiD0GiruappCpscS-42" style="rounded=0;orthogonalLoop=1;jettySize=auto;html=1;entryX=0;entryY=0.5;entryDx=0;entryDy=0;" parent="1" source="RKaLyiD0GiruappCpscS-3" target="RKaLyiD0GiruappCpscS-33" edge="1">
          <mxGeometry relative="1" as="geometry" />
        </mxCell>
        <mxCell id="RKaLyiD0GiruappCpscS-43" style="rounded=0;orthogonalLoop=1;jettySize=auto;html=1;entryX=0;entryY=0.5;entryDx=0;entryDy=0;" parent="1" source="RKaLyiD0GiruappCpscS-3" target="RKaLyiD0GiruappCpscS-25" edge="1">
          <mxGeometry relative="1" as="geometry" />
        </mxCell>
        <mxCell id="RKaLyiD0GiruappCpscS-3" value="管理员" style="shape=umlActor;verticalLabelPosition=bottom;verticalAlign=top;html=1;" parent="1" vertex="1">
          <mxGeometry x="110" y="710" width="30" height="60" as="geometry" />
        </mxCell>
        <mxCell id="RKaLyiD0GiruappCpscS-39" style="rounded=0;orthogonalLoop=1;jettySize=auto;html=1;entryX=0;entryY=0.5;entryDx=0;entryDy=0;" parent="1" source="RKaLyiD0GiruappCpscS-6" target="RKaLyiD0GiruappCpscS-23" edge="1">
          <mxGeometry relative="1" as="geometry" />
        </mxCell>
        <mxCell id="RKaLyiD0GiruappCpscS-40" style="rounded=0;orthogonalLoop=1;jettySize=auto;html=1;entryX=0;entryY=0.5;entryDx=0;entryDy=0;" parent="1" source="RKaLyiD0GiruappCpscS-6" target="RKaLyiD0GiruappCpscS-22" edge="1">
          <mxGeometry relative="1" as="geometry" />
        </mxCell>
        <mxCell id="RKaLyiD0GiruappCpscS-6" value="审核" style="shape=umlActor;verticalLabelPosition=bottom;verticalAlign=top;html=1;" parent="1" vertex="1">
          <mxGeometry x="110" y="555" width="30" height="60" as="geometry" />
        </mxCell>
        <mxCell id="RKaLyiD0GiruappCpscS-12" value="查询资料" style="ellipse;whiteSpace=wrap;html=1;" parent="1" vertex="1">
          <mxGeometry x="210" y="280" width="110" height="55" as="geometry" />
        </mxCell>
        <mxCell id="RKaLyiD0GiruappCpscS-13" value="编辑资料" style="ellipse;whiteSpace=wrap;html=1;" parent="1" vertex="1">
          <mxGeometry x="410" y="335" width="110" height="55" as="geometry" />
        </mxCell>
        <mxCell id="RKaLyiD0GiruappCpscS-15" value="浏览资料" style="ellipse;whiteSpace=wrap;html=1;" parent="1" vertex="1">
          <mxGeometry x="210" y="210" width="110" height="55" as="geometry" />
        </mxCell>
        <mxCell id="RKaLyiD0GiruappCpscS-16" value="登录" style="ellipse;whiteSpace=wrap;html=1;" parent="1" vertex="1">
          <mxGeometry x="210" y="140" width="110" height="55" as="geometry" />
        </mxCell>
        <mxCell id="RKaLyiD0GiruappCpscS-17" value="收藏资料" style="ellipse;whiteSpace=wrap;html=1;" parent="1" vertex="1">
          <mxGeometry x="410" y="175" width="110" height="55" as="geometry" />
        </mxCell>
        <mxCell id="RKaLyiD0GiruappCpscS-18" value="导出资料" style="ellipse;whiteSpace=wrap;html=1;" parent="1" vertex="1">
          <mxGeometry x="410" y="250" width="110" height="55" as="geometry" />
        </mxCell>
        <mxCell id="RKaLyiD0GiruappCpscS-20" value="新增资料" style="ellipse;whiteSpace=wrap;html=1;" parent="1" vertex="1">
          <mxGeometry x="410" y="405" width="110" height="55" as="geometry" />
        </mxCell>
        <mxCell id="RKaLyiD0GiruappCpscS-21" value="资料处理" style="ellipse;whiteSpace=wrap;html=1;" parent="1" vertex="1">
          <mxGeometry x="640" y="335" width="110" height="55" as="geometry" />
        </mxCell>
        <mxCell id="RKaLyiD0GiruappCpscS-22" value="审核资料" style="ellipse;whiteSpace=wrap;html=1;" parent="1" vertex="1">
          <mxGeometry x="210" y="600" width="110" height="55" as="geometry" />
        </mxCell>
        <mxCell id="RKaLyiD0GiruappCpscS-23" value="管理权限" style="ellipse;whiteSpace=wrap;html=1;" parent="1" vertex="1">
          <mxGeometry x="210" y="520" width="110" height="55" as="geometry" />
        </mxCell>
        <mxCell id="RKaLyiD0GiruappCpscS-24" value="任命审核" style="ellipse;whiteSpace=wrap;html=1;" parent="1" vertex="1">
          <mxGeometry x="210" y="680" width="110" height="55" as="geometry" />
        </mxCell>
        <mxCell id="RKaLyiD0GiruappCpscS-25" value="强制录入" style="ellipse;whiteSpace=wrap;html=1;" parent="1" vertex="1">
          <mxGeometry x="640" y="710" width="110" height="55" as="geometry" />
        </mxCell>
        <mxCell id="RKaLyiD0GiruappCpscS-26" value="批量录入" style="ellipse;whiteSpace=wrap;html=1;" parent="1" vertex="1">
          <mxGeometry x="640" y="405" width="110" height="55" as="geometry" />
        </mxCell>
        <mxCell id="RKaLyiD0GiruappCpscS-27" value="" style="edgeStyle=none;html=1;endArrow=block;endFill=0;endSize=12;verticalAlign=bottom;rounded=0;exitX=0.5;exitY=0;exitDx=0;exitDy=0;exitPerimeter=0;" parent="1" source="RKaLyiD0GiruappCpscS-3" edge="1">
          <mxGeometry width="160" relative="1" as="geometry">
            <mxPoint x="125" y="700" as="sourcePoint" />
            <mxPoint x="125" y="640" as="targetPoint" />
          </mxGeometry>
        </mxCell>
        <mxCell id="RKaLyiD0GiruappCpscS-28" value="" style="edgeStyle=none;html=1;endArrow=block;endFill=0;endSize=12;verticalAlign=bottom;rounded=0;exitX=0.5;exitY=0;exitDx=0;exitDy=0;exitPerimeter=0;" parent="1" source="RKaLyiD0GiruappCpscS-6" edge="1">
          <mxGeometry width="160" relative="1" as="geometry">
            <mxPoint x="130" y="450" as="sourcePoint" />
            <mxPoint x="125" y="480" as="targetPoint" />
          </mxGeometry>
        </mxCell>
        <mxCell id="RKaLyiD0GiruappCpscS-30" value="" style="edgeStyle=none;html=1;endArrow=block;endFill=0;endSize=12;verticalAlign=bottom;rounded=0;exitX=0.5;exitY=0;exitDx=0;exitDy=0;exitPerimeter=0;" parent="1" source="RKaLyiD0GiruappCpscS-2" edge="1">
          <mxGeometry width="160" relative="1" as="geometry">
            <mxPoint x="130" y="450" as="sourcePoint" />
            <mxPoint x="125" y="300" as="targetPoint" />
          </mxGeometry>
        </mxCell>
        <mxCell id="RKaLyiD0GiruappCpscS-33" value="维护功能" style="ellipse;whiteSpace=wrap;html=1;" parent="1" vertex="1">
          <mxGeometry x="210" y="750" width="110" height="55" as="geometry" />
        </mxCell>
        <mxCell id="RKaLyiD0GiruappCpscS-44" value="查询用户" style="ellipse;whiteSpace=wrap;html=1;" parent="1" vertex="1">
          <mxGeometry x="410" y="640" width="110" height="55" as="geometry" />
        </mxCell>
        <mxCell id="RKaLyiD0GiruappCpscS-45" value="&amp;lt;&amp;lt;extend&amp;gt;&amp;gt;" style="edgeStyle=none;html=1;startArrow=open;endArrow=none;startSize=12;verticalAlign=bottom;dashed=1;labelBackgroundColor=none;rounded=0;entryX=0;entryY=0.5;entryDx=0;entryDy=0;exitX=1;exitY=0.5;exitDx=0;exitDy=0;" parent="1" source="RKaLyiD0GiruappCpscS-15" target="RKaLyiD0GiruappCpscS-17" edge="1">
          <mxGeometry width="160" relative="1" as="geometry">
            <mxPoint x="380" y="335" as="sourcePoint" />
            <mxPoint x="540" y="335" as="targetPoint" />
          </mxGeometry>
        </mxCell>
        <mxCell id="RKaLyiD0GiruappCpscS-46" value="&amp;lt;&amp;lt;extend&amp;gt;&amp;gt;" style="edgeStyle=none;html=1;startArrow=open;endArrow=none;startSize=12;verticalAlign=bottom;dashed=1;labelBackgroundColor=none;rounded=0;entryX=0;entryY=0;entryDx=0;entryDy=0;exitX=1;exitY=1;exitDx=0;exitDy=0;" parent="1" source="RKaLyiD0GiruappCpscS-15" target="RKaLyiD0GiruappCpscS-18" edge="1">
          <mxGeometry width="160" relative="1" as="geometry">
            <mxPoint x="330" y="248" as="sourcePoint" />
            <mxPoint x="410" y="213" as="targetPoint" />
          </mxGeometry>
        </mxCell>
        <mxCell id="RKaLyiD0GiruappCpscS-47" value="&amp;lt;&amp;lt;extend&amp;gt;&amp;gt;" style="edgeStyle=none;html=1;startArrow=open;endArrow=none;startSize=12;verticalAlign=bottom;dashed=1;labelBackgroundColor=none;rounded=0;entryX=0;entryY=0.5;entryDx=0;entryDy=0;exitX=1;exitY=0.5;exitDx=0;exitDy=0;" parent="1" source="RKaLyiD0GiruappCpscS-12" target="RKaLyiD0GiruappCpscS-18" edge="1">
          <mxGeometry width="160" relative="1" as="geometry">
            <mxPoint x="340" y="258" as="sourcePoint" />
            <mxPoint x="420" y="223" as="targetPoint" />
          </mxGeometry>
        </mxCell>
        <mxCell id="RKaLyiD0GiruappCpscS-48" value="&amp;lt;&amp;lt;extend&amp;gt;&amp;gt;" style="edgeStyle=none;html=1;startArrow=open;endArrow=none;startSize=12;verticalAlign=bottom;dashed=1;labelBackgroundColor=none;rounded=0;entryX=0;entryY=0.5;entryDx=0;entryDy=0;exitX=1;exitY=0.5;exitDx=0;exitDy=0;" parent="1" source="RKaLyiD0GiruappCpscS-13" target="RKaLyiD0GiruappCpscS-21" edge="1">
          <mxGeometry width="160" relative="1" as="geometry">
            <mxPoint x="520" y="385" as="sourcePoint" />
            <mxPoint x="600" y="355" as="targetPoint" />
          </mxGeometry>
        </mxCell>
        <mxCell id="RKaLyiD0GiruappCpscS-49" value="&amp;lt;&amp;lt;extend&amp;gt;&amp;gt;" style="edgeStyle=none;html=1;startArrow=open;endArrow=none;startSize=12;verticalAlign=bottom;dashed=1;labelBackgroundColor=none;rounded=0;entryX=0;entryY=1;entryDx=0;entryDy=0;exitX=1;exitY=0;exitDx=0;exitDy=0;" parent="1" source="RKaLyiD0GiruappCpscS-20" target="RKaLyiD0GiruappCpscS-21" edge="1">
          <mxGeometry width="160" relative="1" as="geometry">
            <mxPoint x="530" y="373" as="sourcePoint" />
            <mxPoint x="610" y="373" as="targetPoint" />
          </mxGeometry>
        </mxCell>
        <mxCell id="RKaLyiD0GiruappCpscS-50" value="&amp;lt;&amp;lt;extend&amp;gt;&amp;gt;" style="edgeStyle=none;html=1;startArrow=open;endArrow=none;startSize=12;verticalAlign=bottom;dashed=1;labelBackgroundColor=none;rounded=0;entryX=0;entryY=0.5;entryDx=0;entryDy=0;exitX=1;exitY=0.5;exitDx=0;exitDy=0;" parent="1" source="RKaLyiD0GiruappCpscS-20" target="RKaLyiD0GiruappCpscS-26" edge="1">
          <mxGeometry width="160" relative="1" as="geometry">
            <mxPoint x="500" y="485" as="sourcePoint" />
            <mxPoint x="580" y="415" as="targetPoint" />
          </mxGeometry>
        </mxCell>
        <mxCell id="RKaLyiD0GiruappCpscS-51" value="&amp;lt;&amp;lt;include&amp;gt;&amp;gt;" style="edgeStyle=none;html=1;endArrow=open;verticalAlign=bottom;dashed=1;labelBackgroundColor=none;rounded=0;exitX=1;exitY=0.5;exitDx=0;exitDy=0;" parent="1" source="RKaLyiD0GiruappCpscS-23" edge="1">
          <mxGeometry width="160" relative="1" as="geometry">
            <mxPoint x="130" y="470" as="sourcePoint" />
            <mxPoint x="460" y="640" as="targetPoint" />
          </mxGeometry>
        </mxCell>
        <mxCell id="RKaLyiD0GiruappCpscS-52" value="&amp;lt;&amp;lt;include&amp;gt;&amp;gt;" style="edgeStyle=none;html=1;endArrow=open;verticalAlign=bottom;dashed=1;labelBackgroundColor=none;rounded=0;exitX=1;exitY=0.5;exitDx=0;exitDy=0;" parent="1" source="RKaLyiD0GiruappCpscS-22" target="RKaLyiD0GiruappCpscS-44" edge="1">
          <mxGeometry width="160" relative="1" as="geometry">
            <mxPoint x="330" y="558" as="sourcePoint" />
            <mxPoint x="410" y="558" as="targetPoint" />
          </mxGeometry>
        </mxCell>
        <mxCell id="RKaLyiD0GiruappCpscS-53" value="&amp;lt;&amp;lt;extend&amp;gt;&amp;gt;" style="edgeStyle=none;html=1;startArrow=open;endArrow=none;startSize=12;verticalAlign=bottom;dashed=1;labelBackgroundColor=none;rounded=0;entryX=0.5;entryY=0;entryDx=0;entryDy=0;exitX=1;exitY=1;exitDx=0;exitDy=0;" parent="1" source="RKaLyiD0GiruappCpscS-54" target="RKaLyiD0GiruappCpscS-25" edge="1">
          <mxGeometry width="160" relative="1" as="geometry">
            <mxPoint x="540" y="560" as="sourcePoint" />
            <mxPoint x="410" y="468" as="targetPoint" />
          </mxGeometry>
        </mxCell>
        <mxCell id="RKaLyiD0GiruappCpscS-54" value="录入资料" style="ellipse;whiteSpace=wrap;html=1;" parent="1" vertex="1">
          <mxGeometry x="210" y="392.5" width="110" height="55" as="geometry" />
        </mxCell>
        <mxCell id="RKaLyiD0GiruappCpscS-55" value="&amp;lt;&amp;lt;include&amp;gt;&amp;gt;" style="edgeStyle=none;html=1;endArrow=open;verticalAlign=bottom;dashed=1;labelBackgroundColor=none;rounded=0;exitX=1;exitY=0.5;exitDx=0;exitDy=0;entryX=0;entryY=1;entryDx=0;entryDy=0;" parent="1" source="RKaLyiD0GiruappCpscS-24" target="RKaLyiD0GiruappCpscS-44" edge="1">
          <mxGeometry width="160" relative="1" as="geometry">
            <mxPoint x="330" y="638" as="sourcePoint" />
            <mxPoint x="391" y="661" as="targetPoint" />
          </mxGeometry>
        </mxCell>
        <mxCell id="RKaLyiD0GiruappCpscS-57" value="" style="edgeStyle=none;html=1;endArrow=block;endFill=0;endSize=12;verticalAlign=bottom;rounded=0;exitX=0;exitY=0.5;exitDx=0;exitDy=0;entryX=1;entryY=0;entryDx=0;entryDy=0;" parent="1" source="RKaLyiD0GiruappCpscS-13" target="RKaLyiD0GiruappCpscS-54" edge="1">
          <mxGeometry width="160" relative="1" as="geometry">
            <mxPoint x="130" y="450" as="sourcePoint" />
            <mxPoint x="290" y="450" as="targetPoint" />
          </mxGeometry>
        </mxCell>
        <mxCell id="RKaLyiD0GiruappCpscS-58" value="" style="edgeStyle=none;html=1;endArrow=block;endFill=0;endSize=12;verticalAlign=bottom;rounded=0;exitX=0;exitY=0.5;exitDx=0;exitDy=0;entryX=1;entryY=0.5;entryDx=0;entryDy=0;" parent="1" source="RKaLyiD0GiruappCpscS-20" target="RKaLyiD0GiruappCpscS-54" edge="1">
          <mxGeometry width="160" relative="1" as="geometry">
            <mxPoint x="130" y="450" as="sourcePoint" />
            <mxPoint x="290" y="450" as="targetPoint" />
          </mxGeometry>
        </mxCell>
      </root>
    </mxGraphModel>
  </diagram>
</mxfile>
